<mxfile host="app.diagrams.net" agent="Mozilla/5.0 (Windows NT 10.0; Win64; x64) AppleWebKit/537.36 (KHTML, like Gecko) Chrome/131.0.0.0 Safari/537.36" version="24.9.2" pages="3">
  <diagram name="home" id="Tp7i_1Nzl8K5jkxN4hFy">
    <mxGraphModel dx="1036" dy="677" grid="1" gridSize="10" guides="1" tooltips="1" connect="1" arrows="1" fold="1" page="1" pageScale="1" pageWidth="827" pageHeight="1169" math="0" shadow="0">
      <root>
        <mxCell id="0" />
        <mxCell id="1" parent="0" />
        <mxCell id="WZ1lqG-8PiyNp1W0iICR-1" value="" style="whiteSpace=wrap;html=1;aspect=fixed;fontColor=#FFFFFF;" vertex="1" parent="1">
          <mxGeometry x="40" y="510" width="740" height="740" as="geometry" />
        </mxCell>
        <mxCell id="WZ1lqG-8PiyNp1W0iICR-3" value="" style="rounded=0;whiteSpace=wrap;html=1;fillColor=#e51400;fontColor=#ffffff;strokeColor=#B20000;" vertex="1" parent="1">
          <mxGeometry x="40" y="40" width="740" height="60" as="geometry" />
        </mxCell>
        <mxCell id="WZ1lqG-8PiyNp1W0iICR-4" value="Red Cafe Bistro" style="text;html=1;align=center;verticalAlign=middle;whiteSpace=wrap;rounded=0;fontStyle=1;fontSize=18;" vertex="1" parent="1">
          <mxGeometry x="60" y="40" width="190" height="60" as="geometry" />
        </mxCell>
        <mxCell id="WZ1lqG-8PiyNp1W0iICR-5" value="Contact" style="text;html=1;align=center;verticalAlign=middle;whiteSpace=wrap;rounded=0;fontColor=#FFFFFF;" vertex="1" parent="1">
          <mxGeometry x="520" y="60" width="60" height="30" as="geometry" />
        </mxCell>
        <mxCell id="WZ1lqG-8PiyNp1W0iICR-6" value="Gallery" style="text;html=1;align=center;verticalAlign=middle;whiteSpace=wrap;rounded=0;fontColor=#FFFFFF;" vertex="1" parent="1">
          <mxGeometry x="430" y="60" width="60" height="30" as="geometry" />
        </mxCell>
        <mxCell id="WZ1lqG-8PiyNp1W0iICR-7" value="Home" style="text;html=1;align=center;verticalAlign=middle;whiteSpace=wrap;rounded=0;fontColor=#FFFFFF;" vertex="1" parent="1">
          <mxGeometry x="354" y="60" width="60" height="30" as="geometry" />
        </mxCell>
        <mxCell id="WZ1lqG-8PiyNp1W0iICR-9" value="Text" style="text;html=1;align=center;verticalAlign=middle;whiteSpace=wrap;rounded=0;" vertex="1" parent="1">
          <mxGeometry x="360" y="280" width="60" height="30" as="geometry" />
        </mxCell>
        <mxCell id="WZ1lqG-8PiyNp1W0iICR-10" value="" style="rounded=0;whiteSpace=wrap;html=1;fontColor=#00331A;labelBackgroundColor=#4D4D4D;" vertex="1" parent="1">
          <mxGeometry x="40" y="100" width="740" height="200" as="geometry" />
        </mxCell>
        <mxCell id="WZ1lqG-8PiyNp1W0iICR-12" value="&lt;div&gt;&lt;b&gt;Red Cafe@Home&lt;/b&gt;&lt;/div&gt;&lt;div&gt;Red Cafe@Home is a brand new dining experience that allows you to enjoy your favourite restaurant dishes from the comfort of your own home.&lt;/div&gt;&lt;div&gt;&lt;br&gt;&lt;/div&gt;&lt;div&gt;Red Cafe@Home dining allows you to preorder dishes for a chilled delivery to your home to be eaten at your own convenience – taking the hassle out of cooking.&lt;/div&gt;&lt;div&gt;&lt;br&gt;&lt;/div&gt;&lt;div&gt;There’s also starters, desserts and drinks to bring even more of the restaurant experience in an At Home dining setting.&lt;/div&gt;&lt;div&gt;&lt;br&gt;&lt;/div&gt;&lt;div&gt;Staying at home doesn’t need to mean cooking for yourself. Take a look at our Red Cafe @ Home website and preorder today!&lt;/div&gt;&lt;div&gt;&lt;br&gt;&lt;/div&gt;&lt;div&gt;&lt;b&gt;Buchanan Street&lt;/b&gt;&lt;/div&gt;&lt;div&gt;&lt;b&gt;Glasgow&lt;/b&gt;&lt;/div&gt;&lt;div&gt;&lt;b&gt;G1 1AA&lt;/b&gt;&lt;/div&gt;&lt;div&gt;&lt;b&gt;Tel : 014114145888&lt;/b&gt;&lt;/div&gt;&lt;div&gt;&lt;b&gt;email: info@redcafebistro.com&lt;/b&gt;&lt;/div&gt;&lt;div&gt;&lt;br&gt;&lt;/div&gt;" style="text;html=1;align=center;verticalAlign=middle;whiteSpace=wrap;rounded=0;fillColor=#f5f5f5;fontColor=#333333;strokeColor=#666666;" vertex="1" parent="1">
          <mxGeometry x="40" y="510" width="740" height="260" as="geometry" />
        </mxCell>
        <mxCell id="WZ1lqG-8PiyNp1W0iICR-13" value="" style="rounded=0;whiteSpace=wrap;html=1;" vertex="1" parent="1">
          <mxGeometry x="40" y="760" width="740" height="170" as="geometry" />
        </mxCell>
        <mxCell id="WZ1lqG-8PiyNp1W0iICR-14" value="&lt;div&gt;Red Cafe, Buchanan Street&lt;/div&gt;&lt;div&gt;Situated directly across from the Underground, Red Cafe is truly the home of authentic dining in the heart of Glasgow. Following the same ethos as our original restaurant, we serve delicious, traditional food from breakfast through to dinner, 7 days a week.&lt;/div&gt;&lt;div&gt;&lt;br&gt;&lt;/div&gt;&lt;div&gt;The Dining Experience&lt;/div&gt;&lt;div&gt;Our Glasgow City Centre restaurant is always filled with a buzzing atmosphere, happy diners and the smell of beautiful, authentic food. We promise that no matter what time of the day you dine with us, we’ll always leave you wanting more from the Red Cafe&lt;/div&gt;&lt;div&gt;&lt;br&gt;&lt;/div&gt;&lt;div&gt;Monday - 12:00-22:00&lt;/div&gt;&lt;div&gt;Tuesday - 12:00-22:00&lt;/div&gt;&lt;div&gt;Wednesday - 12:00-22:00&lt;/div&gt;&lt;div&gt;Thursday - 12:00-22:00&lt;/div&gt;&lt;div&gt;Friday - 12:00-23:00&lt;/div&gt;&lt;div&gt;Saturday - 12:00-23:00&lt;/div&gt;&lt;div&gt;Sunday - 12:00-22:00&lt;/div&gt;&lt;div&gt;&lt;br&gt;&lt;/div&gt;" style="text;html=1;align=center;verticalAlign=middle;whiteSpace=wrap;rounded=0;" vertex="1" parent="1">
          <mxGeometry x="40" y="940" width="730" height="230" as="geometry" />
        </mxCell>
        <mxCell id="WZ1lqG-8PiyNp1W0iICR-15" value="" style="rounded=0;whiteSpace=wrap;html=1;fillColor=#e51400;fontColor=#ffffff;strokeColor=#B20000;" vertex="1" parent="1">
          <mxGeometry x="40" y="1180" width="740" height="70" as="geometry" />
        </mxCell>
        <mxCell id="WZ1lqG-8PiyNp1W0iICR-16" value="&lt;div&gt;&lt;b&gt;About Us&lt;/b&gt;&lt;/div&gt;&lt;div&gt;The original Red Cafe Bistro – this is where everything began. Our Glasgow restaurant is the place where our family created and perfected the authentic dining experience that we are famous for today.&lt;/div&gt;&lt;div&gt;&lt;br&gt;&lt;/div&gt;&lt;div&gt;With several menus packed full of traditional dishes, we have secured our place as the favourite, family-friendly restaurant in the Glasgow community.&lt;/div&gt;&lt;div&gt;&lt;br&gt;&lt;/div&gt;&lt;div&gt;Our menus and setting provide the perfect atmosphere for any occasion; from romantic meals, to family parties, to graduation celebrations and more. At Red Cafe Glasgow, our friendly staff and stunning decor ensure you’ll feel like one of the family every time you visit.&lt;/div&gt;&lt;div&gt;&lt;br&gt;&lt;/div&gt;&lt;div&gt;We can&#39;t wait to see you.&lt;/div&gt;" style="rounded=0;whiteSpace=wrap;html=1;fillColor=#f5f5f5;fontColor=#333333;strokeColor=#666666;" vertex="1" parent="1">
          <mxGeometry x="40" y="310" width="740" height="190" as="geometry" />
        </mxCell>
        <mxCell id="WZ1lqG-8PiyNp1W0iICR-17" value="Photo" style="html=1;whiteSpace=wrap;strokeColor=#6F0000;fillColor=#a20025;labelPosition=center;verticalLabelPosition=middle;verticalAlign=top;align=center;fontSize=12;outlineConnect=0;spacingTop=-6;fontColor=#ffffff;sketch=0;shape=mxgraph.sitemap.photo;" vertex="1" parent="1">
          <mxGeometry x="40" y="100" width="740" height="200" as="geometry" />
        </mxCell>
        <mxCell id="WZ1lqG-8PiyNp1W0iICR-18" value="Photo" style="html=1;whiteSpace=wrap;strokeColor=#6F0000;fillColor=#a20025;labelPosition=center;verticalLabelPosition=middle;verticalAlign=top;align=center;fontSize=12;outlineConnect=0;spacingTop=-6;fontColor=#ffffff;sketch=0;shape=mxgraph.sitemap.photo;" vertex="1" parent="1">
          <mxGeometry x="40" y="760" width="740" height="170" as="geometry" />
        </mxCell>
        <mxCell id="WZ1lqG-8PiyNp1W0iICR-19" value="All Content © Red Cafe Bistro 2021" style="text;html=1;align=center;verticalAlign=middle;whiteSpace=wrap;rounded=0;" vertex="1" parent="1">
          <mxGeometry x="290" y="1200" width="250" height="30" as="geometry" />
        </mxCell>
      </root>
    </mxGraphModel>
  </diagram>
  <diagram id="2-HmzPDHoHE81D6D-HiF" name="Gallery">
    <mxGraphModel dx="1036" dy="677" grid="1" gridSize="10" guides="1" tooltips="1" connect="1" arrows="1" fold="1" page="1" pageScale="1" pageWidth="827" pageHeight="1169" math="0" shadow="0">
      <root>
        <mxCell id="0" />
        <mxCell id="1" parent="0" />
        <mxCell id="XgFdFGgMvXLHx3uQTcSN-2" value="" style="rounded=0;whiteSpace=wrap;html=1;fillColor=#e51400;fontColor=#ffffff;strokeColor=#B20000;" vertex="1" parent="1">
          <mxGeometry x="40" y="40" width="740" height="60" as="geometry" />
        </mxCell>
        <mxCell id="XgFdFGgMvXLHx3uQTcSN-3" value="Red Cafe Bistro" style="text;html=1;align=center;verticalAlign=middle;whiteSpace=wrap;rounded=0;fontStyle=1;fontSize=18;" vertex="1" parent="1">
          <mxGeometry x="60" y="40" width="190" height="60" as="geometry" />
        </mxCell>
        <mxCell id="XgFdFGgMvXLHx3uQTcSN-4" value="Contact" style="text;html=1;align=center;verticalAlign=middle;whiteSpace=wrap;rounded=0;fontColor=#FFFFFF;" vertex="1" parent="1">
          <mxGeometry x="520" y="60" width="60" height="30" as="geometry" />
        </mxCell>
        <mxCell id="XgFdFGgMvXLHx3uQTcSN-5" value="Gallery" style="text;html=1;align=center;verticalAlign=middle;whiteSpace=wrap;rounded=0;fontColor=#FFFFFF;" vertex="1" parent="1">
          <mxGeometry x="430" y="60" width="60" height="30" as="geometry" />
        </mxCell>
        <mxCell id="XgFdFGgMvXLHx3uQTcSN-6" value="Home" style="text;html=1;align=center;verticalAlign=middle;whiteSpace=wrap;rounded=0;fontColor=#FFFFFF;" vertex="1" parent="1">
          <mxGeometry x="354" y="60" width="60" height="30" as="geometry" />
        </mxCell>
        <mxCell id="XgFdFGgMvXLHx3uQTcSN-7" value="Text" style="text;html=1;align=center;verticalAlign=middle;whiteSpace=wrap;rounded=0;" vertex="1" parent="1">
          <mxGeometry x="360" y="280" width="60" height="30" as="geometry" />
        </mxCell>
        <mxCell id="XgFdFGgMvXLHx3uQTcSN-8" value="" style="rounded=0;whiteSpace=wrap;html=1;fontColor=#00331A;labelBackgroundColor=#4D4D4D;" vertex="1" parent="1">
          <mxGeometry x="40" y="100" width="740" height="760" as="geometry" />
        </mxCell>
        <mxCell id="XVCg-sBjra6SI52HOzXO-1" value="" style="rounded=0;whiteSpace=wrap;html=1;" vertex="1" parent="1">
          <mxGeometry x="110" y="130" width="150" height="150" as="geometry" />
        </mxCell>
        <mxCell id="XVCg-sBjra6SI52HOzXO-2" value="" style="rounded=0;whiteSpace=wrap;html=1;" vertex="1" parent="1">
          <mxGeometry x="335" y="130" width="150" height="150" as="geometry" />
        </mxCell>
        <mxCell id="XVCg-sBjra6SI52HOzXO-3" value="" style="rounded=0;whiteSpace=wrap;html=1;" vertex="1" parent="1">
          <mxGeometry x="560" y="130" width="150" height="150" as="geometry" />
        </mxCell>
        <mxCell id="XVCg-sBjra6SI52HOzXO-4" value="" style="rounded=0;whiteSpace=wrap;html=1;" vertex="1" parent="1">
          <mxGeometry x="570" y="540" width="150" height="150" as="geometry" />
        </mxCell>
        <mxCell id="XVCg-sBjra6SI52HOzXO-5" value="" style="rounded=0;whiteSpace=wrap;html=1;" vertex="1" parent="1">
          <mxGeometry x="335" y="540" width="150" height="150" as="geometry" />
        </mxCell>
        <mxCell id="XVCg-sBjra6SI52HOzXO-6" value="" style="rounded=0;whiteSpace=wrap;html=1;fillColor=#d80073;fontColor=#ffffff;strokeColor=#A50040;" vertex="1" parent="1">
          <mxGeometry x="120" y="540" width="150" height="150" as="geometry" />
        </mxCell>
        <mxCell id="XVCg-sBjra6SI52HOzXO-7" value="" style="rounded=0;whiteSpace=wrap;html=1;" vertex="1" parent="1">
          <mxGeometry x="110" y="330" width="150" height="150" as="geometry" />
        </mxCell>
        <mxCell id="XVCg-sBjra6SI52HOzXO-8" value="" style="rounded=0;whiteSpace=wrap;html=1;" vertex="1" parent="1">
          <mxGeometry x="340" y="330" width="150" height="150" as="geometry" />
        </mxCell>
        <mxCell id="XVCg-sBjra6SI52HOzXO-9" value="" style="rounded=0;whiteSpace=wrap;html=1;fillColor=#d80073;fontColor=#ffffff;strokeColor=#A50040;" vertex="1" parent="1">
          <mxGeometry x="570" y="330" width="150" height="150" as="geometry" />
        </mxCell>
        <mxCell id="XVCg-sBjra6SI52HOzXO-10" value="" style="verticalLabelPosition=bottom;sketch=0;aspect=fixed;html=1;verticalAlign=top;strokeColor=#A50040;align=center;outlineConnect=0;shape=mxgraph.citrix.podio;fillColor=#d80073;gradientDirection=south;fontColor=#ffffff;" vertex="1" parent="1">
          <mxGeometry x="110" y="130" width="150" height="150" as="geometry" />
        </mxCell>
        <mxCell id="XVCg-sBjra6SI52HOzXO-12" value="" style="verticalLabelPosition=bottom;sketch=0;aspect=fixed;html=1;verticalAlign=top;strokeColor=#A50040;align=center;outlineConnect=0;shape=mxgraph.citrix.podio;fillColor=#d80073;gradientDirection=south;fontColor=#ffffff;" vertex="1" parent="1">
          <mxGeometry x="335" y="130" width="150" height="150" as="geometry" />
        </mxCell>
        <mxCell id="XVCg-sBjra6SI52HOzXO-13" value="" style="verticalLabelPosition=bottom;sketch=0;aspect=fixed;html=1;verticalAlign=top;strokeColor=#A50040;align=center;outlineConnect=0;shape=mxgraph.citrix.podio;fillColor=#d80073;gradientDirection=south;fontColor=#ffffff;" vertex="1" parent="1">
          <mxGeometry x="560" y="130" width="150" height="150" as="geometry" />
        </mxCell>
        <mxCell id="XVCg-sBjra6SI52HOzXO-14" value="" style="verticalLabelPosition=bottom;sketch=0;aspect=fixed;html=1;verticalAlign=top;strokeColor=#A50040;align=center;outlineConnect=0;shape=mxgraph.citrix.podio;fillColor=#d80073;gradientDirection=south;fontColor=#ffffff;" vertex="1" parent="1">
          <mxGeometry x="110" y="330" width="150" height="150" as="geometry" />
        </mxCell>
        <mxCell id="XVCg-sBjra6SI52HOzXO-15" value="" style="verticalLabelPosition=bottom;sketch=0;aspect=fixed;html=1;verticalAlign=top;strokeColor=#A50040;align=center;outlineConnect=0;shape=mxgraph.citrix.podio;fillColor=#d80073;gradientDirection=south;fontColor=#ffffff;" vertex="1" parent="1">
          <mxGeometry x="340" y="330" width="150" height="150" as="geometry" />
        </mxCell>
        <mxCell id="XVCg-sBjra6SI52HOzXO-16" value="" style="verticalLabelPosition=bottom;sketch=0;aspect=fixed;html=1;verticalAlign=top;strokeColor=#A50040;align=center;outlineConnect=0;shape=mxgraph.citrix.podio;fillColor=#d80073;gradientDirection=south;fontColor=#ffffff;" vertex="1" parent="1">
          <mxGeometry x="570" y="330" width="150" height="150" as="geometry" />
        </mxCell>
        <mxCell id="XVCg-sBjra6SI52HOzXO-17" value="" style="verticalLabelPosition=bottom;sketch=0;aspect=fixed;html=1;verticalAlign=top;strokeColor=#A50040;align=center;outlineConnect=0;shape=mxgraph.citrix.podio;fillColor=#d80073;gradientDirection=south;fontColor=#ffffff;" vertex="1" parent="1">
          <mxGeometry x="120" y="540" width="150" height="150" as="geometry" />
        </mxCell>
        <mxCell id="XVCg-sBjra6SI52HOzXO-18" value="" style="verticalLabelPosition=bottom;sketch=0;aspect=fixed;html=1;verticalAlign=top;strokeColor=#A50040;align=center;outlineConnect=0;shape=mxgraph.citrix.podio;fillColor=#d80073;gradientDirection=south;fontColor=#ffffff;" vertex="1" parent="1">
          <mxGeometry x="335" y="540" width="150" height="150" as="geometry" />
        </mxCell>
        <mxCell id="XVCg-sBjra6SI52HOzXO-19" value="" style="verticalLabelPosition=bottom;sketch=0;aspect=fixed;html=1;verticalAlign=top;strokeColor=#A50040;align=center;outlineConnect=0;shape=mxgraph.citrix.podio;fillColor=#d80073;gradientDirection=south;fontColor=#ffffff;" vertex="1" parent="1">
          <mxGeometry x="570" y="540" width="150" height="150" as="geometry" />
        </mxCell>
        <mxCell id="6ovw-DpaD6wlGhaleX4s-1" value="&lt;span style=&quot;color: rgb(0, 0, 0);&quot;&gt;All Content © Red Cafe Bistro 2021&lt;/span&gt;" style="rounded=0;whiteSpace=wrap;html=1;fillColor=#e51400;fontColor=#ffffff;strokeColor=#B20000;" vertex="1" parent="1">
          <mxGeometry x="40" y="790" width="740" height="70" as="geometry" />
        </mxCell>
      </root>
    </mxGraphModel>
  </diagram>
  <diagram id="CY1_2mEDzGCTeZhXa2Oq" name="Contact">
    <mxGraphModel dx="1036" dy="677" grid="1" gridSize="10" guides="1" tooltips="1" connect="1" arrows="1" fold="1" page="1" pageScale="1" pageWidth="827" pageHeight="1169" math="0" shadow="0">
      <root>
        <mxCell id="0" />
        <mxCell id="1" parent="0" />
        <mxCell id="hE3evnGKvyRxV7r6y8xa-1" value="" style="rounded=0;whiteSpace=wrap;html=1;fillColor=#e51400;fontColor=#ffffff;strokeColor=#B20000;" vertex="1" parent="1">
          <mxGeometry x="40" y="40" width="740" height="60" as="geometry" />
        </mxCell>
        <mxCell id="hE3evnGKvyRxV7r6y8xa-2" value="Red Cafe Bistro" style="text;html=1;align=center;verticalAlign=middle;whiteSpace=wrap;rounded=0;fontStyle=1;fontSize=18;" vertex="1" parent="1">
          <mxGeometry x="60" y="40" width="190" height="60" as="geometry" />
        </mxCell>
        <mxCell id="hE3evnGKvyRxV7r6y8xa-3" value="Contact" style="text;html=1;align=center;verticalAlign=middle;whiteSpace=wrap;rounded=0;fontColor=#FFFFFF;" vertex="1" parent="1">
          <mxGeometry x="520" y="60" width="60" height="30" as="geometry" />
        </mxCell>
        <mxCell id="hE3evnGKvyRxV7r6y8xa-4" value="Gallery" style="text;html=1;align=center;verticalAlign=middle;whiteSpace=wrap;rounded=0;fontColor=#FFFFFF;" vertex="1" parent="1">
          <mxGeometry x="430" y="60" width="60" height="30" as="geometry" />
        </mxCell>
        <mxCell id="hE3evnGKvyRxV7r6y8xa-5" value="Home" style="text;html=1;align=center;verticalAlign=middle;whiteSpace=wrap;rounded=0;fontColor=#FFFFFF;" vertex="1" parent="1">
          <mxGeometry x="354" y="60" width="60" height="30" as="geometry" />
        </mxCell>
        <mxCell id="hE3evnGKvyRxV7r6y8xa-6" value="Text" style="text;html=1;align=center;verticalAlign=middle;whiteSpace=wrap;rounded=0;" vertex="1" parent="1">
          <mxGeometry x="360" y="280" width="60" height="30" as="geometry" />
        </mxCell>
        <mxCell id="hE3evnGKvyRxV7r6y8xa-7" value="" style="rounded=0;whiteSpace=wrap;html=1;fontColor=#00331A;labelBackgroundColor=#4D4D4D;" vertex="1" parent="1">
          <mxGeometry x="40" y="100" width="740" height="760" as="geometry" />
        </mxCell>
        <mxCell id="hE3evnGKvyRxV7r6y8xa-10" value="&lt;span style=&quot;color: rgb(0, 0, 0);&quot;&gt;All Content © Red Cafe Bistro 2021&lt;/span&gt;" style="rounded=0;whiteSpace=wrap;html=1;fillColor=#e51400;fontColor=#ffffff;strokeColor=#B20000;" vertex="1" parent="1">
          <mxGeometry x="40" y="800" width="740" height="60" as="geometry" />
        </mxCell>
        <mxCell id="hE3evnGKvyRxV7r6y8xa-29" value="&lt;div&gt;&lt;font style=&quot;font-size: 15px;&quot;&gt;Contact&lt;/font&gt;&lt;/div&gt;&lt;div&gt;&lt;font style=&quot;font-size: 15px;&quot;&gt;We&#39;re always delighted to hear from you, our valued customers, at every opportunity.&lt;/font&gt;&lt;/div&gt;&lt;div&gt;&lt;font style=&quot;font-size: 15px;&quot;&gt;&lt;br&gt;&lt;/font&gt;&lt;/div&gt;&lt;div&gt;&lt;font style=&quot;font-size: 15px;&quot;&gt;You can use the form below to get in touch and book a table with us and we&#39;ll get right back to you.&lt;/font&gt;&lt;/div&gt;" style="text;html=1;align=center;verticalAlign=middle;whiteSpace=wrap;rounded=0;" vertex="1" parent="1">
          <mxGeometry x="60" y="110" width="700" height="130" as="geometry" />
        </mxCell>
        <mxCell id="hE3evnGKvyRxV7r6y8xa-30" value="" style="rounded=0;whiteSpace=wrap;html=1;" vertex="1" parent="1">
          <mxGeometry x="80" y="440" width="675" height="30" as="geometry" />
        </mxCell>
        <mxCell id="hE3evnGKvyRxV7r6y8xa-31" value="" style="rounded=0;whiteSpace=wrap;html=1;" vertex="1" parent="1">
          <mxGeometry x="80" y="370" width="670" height="30" as="geometry" />
        </mxCell>
        <mxCell id="hE3evnGKvyRxV7r6y8xa-32" value="" style="rounded=0;whiteSpace=wrap;html=1;" vertex="1" parent="1">
          <mxGeometry x="80" y="300" width="670" height="30" as="geometry" />
        </mxCell>
        <mxCell id="hE3evnGKvyRxV7r6y8xa-33" value="Text" style="text;html=1;align=center;verticalAlign=middle;whiteSpace=wrap;rounded=0;" vertex="1" parent="1">
          <mxGeometry x="380" y="300" width="60" height="30" as="geometry" />
        </mxCell>
        <mxCell id="hE3evnGKvyRxV7r6y8xa-34" value="Email" style="text;html=1;align=center;verticalAlign=middle;whiteSpace=wrap;rounded=0;fontStyle=1" vertex="1" parent="1">
          <mxGeometry x="80" y="340" width="90" height="30" as="geometry" />
        </mxCell>
        <mxCell id="hE3evnGKvyRxV7r6y8xa-35" value="Name" style="text;html=1;align=center;verticalAlign=middle;whiteSpace=wrap;rounded=0;fontStyle=1" vertex="1" parent="1">
          <mxGeometry x="80" y="260" width="80" height="30" as="geometry" />
        </mxCell>
        <mxCell id="hE3evnGKvyRxV7r6y8xa-37" value="Time" style="text;html=1;align=center;verticalAlign=middle;whiteSpace=wrap;rounded=0;fontStyle=1" vertex="1" parent="1">
          <mxGeometry x="85" y="410" width="70" height="30" as="geometry" />
        </mxCell>
        <mxCell id="hE3evnGKvyRxV7r6y8xa-38" value="&lt;b&gt;Date&lt;/b&gt;" style="text;html=1;align=center;verticalAlign=middle;whiteSpace=wrap;rounded=0;" vertex="1" parent="1">
          <mxGeometry x="90" y="480" width="60" height="30" as="geometry" />
        </mxCell>
        <mxCell id="hE3evnGKvyRxV7r6y8xa-40" value="dd/mm/yyyy" style="rounded=1;arcSize=9;fillColor=#F7F8F9;align=left;spacingLeft=5;strokeColor=#DEE1E6;html=1;strokeWidth=2;fontColor=#596780;fontSize=12;sketch=1;hachureGap=4;pointerEvents=0;fontFamily=Architects Daughter;fontSource=https%3A%2F%2Ffonts.googleapis.com%2Fcss%3Ffamily%3DArchitects%2BDaughter;" vertex="1" parent="1">
          <mxGeometry x="80" y="505" width="670" height="33" as="geometry" />
        </mxCell>
        <mxCell id="hE3evnGKvyRxV7r6y8xa-41" value="" style="shape=mxgraph.gmdl.calendar;fillColor=#5A6881;strokeColor=none;sketch=0;hachureGap=4;pointerEvents=0;fontFamily=Architects Daughter;fontSource=https%3A%2F%2Ffonts.googleapis.com%2Fcss%3Ffamily%3DArchitects%2BDaughter;fontSize=20;" vertex="1" parent="hE3evnGKvyRxV7r6y8xa-40">
          <mxGeometry x="1" y="0.5" width="18" height="18" relative="1" as="geometry">
            <mxPoint x="-29" y="-9" as="offset" />
          </mxGeometry>
        </mxCell>
        <mxCell id="hE3evnGKvyRxV7r6y8xa-43" value="Submit" style="rounded=1;html=1;shadow=0;dashed=0;whiteSpace=wrap;fontSize=10;fillColor=#a20025;align=center;strokeColor=#6F0000;fontColor=#ffffff;" vertex="1" parent="1">
          <mxGeometry x="80" y="568" width="670" height="32" as="geometry" />
        </mxCell>
        <mxCell id="hE3evnGKvyRxV7r6y8xa-44" value="" style="verticalLabelPosition=bottom;shadow=0;dashed=0;align=center;html=1;verticalAlign=top;strokeWidth=1;shape=mxgraph.mockup.misc.map;" vertex="1" parent="1">
          <mxGeometry x="150" y="610" width="520" height="180" as="geometry" />
        </mxCell>
      </root>
    </mxGraphModel>
  </diagram>
</mxfile>
